<svg width="766" height="202" viewBox="0 0 766 202" fill="none" xmlns="http://www.w3.org/2000/svg">
<path d="M35.5 0.400024C37.9 0.400024 40.1 0.800043 41.9 1.70004C43.7 2.50004 45.2 3.60003 46.3 5.00003C47.5 6.40003 48.3 7.90004 48.9 9.60004C49.5 11.3 49.8 13.1 49.8 15C49.8 16.5 49.6 18.2 49.3 19.9C48.9 21.6 48.3 23.4 47.4 25.1C46.5 26.8 45.3 28.5 43.7 30C42.1 31.6 40.1 32.9 37.7 34.1L43.2 56.6H29.4L25.1 36.2H16.9L13 56.6H0L10.8 0.500031H35.5V0.400024ZM19.1 24.5H29C31.7 24.5 33.7 23.7 35.1 22.2C36.5 20.7 37.2 18.8 37.2 16.8C37.2 15.4 36.8 14.3 35.9 13.4C35 12.5 33.6 12 31.5 12H21.6L19.1 24.5Z" fill="white"/>
<path d="M95.7 46.7C94.3 49 92.5 50.9 90.5 52.4C88.4 53.9 86.1 55 83.5 55.8C80.9 56.6 78 56.9 75 56.9C72.3 56.9 69.8 56.6 67.4 55.9C65 55.2 62.8 54.2 61 52.8C59.1 51.4 57.6 49.6 56.5 47.5C55.4 45.4 54.8 42.9 54.8 40C54.8 38.6 55 37.1 55.3 35.4L62.2 0.399994H75.2L68.1 35.4C67.9 36.3 67.9 37.2 67.9 38C67.9 39.4 68.1 40.5 68.6 41.4C69.1 42.3 69.7 43.1 70.4 43.6C71.1 44.2 71.9 44.6 72.8 44.9C73.7 45.2 74.6 45.3 75.5 45.3C76.5 45.3 77.6 45.1 78.8 44.8C79.9 44.5 81 43.9 82 43.2C83 42.4 83.9 41.4 84.6 40.1C85.4 38.8 85.9 37.2 86.3 35.3L93.1 0.299988H106.1L98.7 38.6C98.1 41.7 97.1 44.4 95.7 46.7Z" fill="white"/>
<path d="M125.1 24.2L118.9 56.5H105.9L116.8 0.400024H128.4L135.2 14L143.8 32.6H144L150.3 0.400024H163.2L152.4 56.5H140.8L132.5 39.4L125.5 24.2H125.1Z" fill="white"/>
<path d="M199.3 0.399994C201.6 0.399994 203.6 0.800012 205.3 1.70001C207 2.60001 208.4 3.80001 209.6 5.20001C210.8 6.70001 211.6 8.30001 212.2 10.2C212.8 12 213.1 13.9 213.1 15.8C213.1 18 212.7 20.2 212 22.6C211.2 25 210.1 27.1 208.5 29.1C206.9 31.1 204.9 32.7 202.3 34C199.8 35.3 196.8 36 193.3 36H181.2L177.2 56.4H164.2L175.1 0.299988H199.3V0.399994ZM183.3 24.5H192.4C195.1 24.5 197.1 23.7 198.5 22.2C199.9 20.7 200.6 18.8 200.6 16.8C200.6 15.4 200.2 14.3 199.3 13.4C198.4 12.5 197 12 194.9 12H185.8L183.3 24.5Z" fill="#FFD400"/>
<path d="M243.3 45.4H225.2L219.7 56.5H205.5L236.1 0.400024H249.5L258.1 56.5H244.5L243.3 45.4ZM230.5 34.8H242.1L241.6 28.7L240.2 15.5H239.9L234.1 27.2L230.5 34.8Z" fill="#FFD400"/>
<path d="M286.1 22.8L292.4 12.7L300.1 0.400024H314.2L290.7 34.3L286.5 56.5H273.5L277.7 34.3L267.3 0.400024H280.7L283.6 13L285.6 22.8H286.1Z" fill="#FFD400"/>
<path d="M392.2 141.2V197.8H414.5V141.2C414.5 120.3 431.5 103.3 452.4 103.3V81C419.2 81.1 392.2 108.1 392.2 141.2Z" fill="#FFD400"/>
<path d="M766 95.8L750.2 80L705 125.2L659.9 80L644.1 95.8L689.3 141L644.1 186.2L659.9 202L705 156.8L750.2 202L766 186.2L720.8 141L766 95.8Z" fill="#FFD400"/>
<path d="M580.6 103.4C597.6 103.4 612 114.7 616.8 130.1H544.5C549.2 114.6 563.6 103.4 580.6 103.4ZM639.8 152.4C640.5 148.8 640.8 145.1 640.8 141.3C640.8 108.1 613.8 81.1 580.6 81.1C547.4 81.1 520.4 108.1 520.4 141.3C520.4 174.5 547.4 201.5 580.6 201.5C600.2 201.5 617.6 192.1 628.6 177.6L610.6 164.4C610.5 164.5 610.5 164.6 610.4 164.6C603.5 173.4 592.7 179.1 580.6 179.1C563.6 179.1 549.2 167.8 544.4 152.4H639.8Z" fill="#FFD400"/>
<path d="M494.8 46.2H472.5V197.8H494.8V106.8H517.3V84.5H494.8V46.2Z" fill="#FFD400"/>
<path d="M347.9 94.6C337.5 86.1 324.3 81 309.9 81C287.4 81 267 93.4 256.7 113.1L231.7 158.8C225.1 171.3 212.3 179.1 198.2 179.1C177.3 179.1 160.3 162.1 160.3 141.2C160.3 120.3 177.3 103.3 198.2 103.3C215.3 103.3 229.8 114.7 234.5 130.3L247.4 106.8C236.5 91.3 218.6 81 198.2 81C165 81 138 108 138 141.2C138 174.4 165 201.4 198.2 201.4C220.6 201.4 241 189.1 251.4 169.4L276.4 123.7C283 111.2 295.8 103.4 310 103.4C330.9 103.4 347.9 120.4 347.9 141.3C347.9 162.2 330.9 179.2 310 179.2C292.8 179.2 278.3 167.7 273.7 152L260.8 175.6C271.7 191.2 289.6 201.5 310.1 201.5C324.5 201.5 337.7 196.4 348.1 187.9V197.8H370.4V85.5H348.1V94.6H347.9Z" fill="#FFD400"/>
<path d="M329.2 0L326.1 17.5C328.9 15.6 332.5 14.7 335.2 14.7C346.4 14.7 352.3 21.6 352.3 31.6C352.3 45.5 343 55.9 328.6 55.9C323.6 55.9 318.5 55 313.7 53.3L323.1 0H329.2V0ZM320.5 49.1C322.9 50 325.8 50.6 328.7 50.6C338.8 50.6 346.4 44.5 346.4 32.5C346.4 23.8 341.6 20 334 20.4C331.1 20.6 327.9 21.3 325 22.8L320.5 49.1Z" fill="white"/>
<path d="M357.6 65.1C362.3 65.7 364.5 63.8 366 61.2L369.2 55.4L360 15.3H366.6L373.5 49.1L391.8 15.3H398.4L371.4 63.2C367.9 69.5 362.3 70.9 356.7 70.3L357.6 65.1Z" fill="white"/>
</svg>
