<svg width="548" height="194" viewBox="0 0 548 194" fill="none" xmlns="http://www.w3.org/2000/svg">
<path d="M221.85 84.04V133.24H241.26V84.04C241.26 65.88 256.03 51.11 274.19 51.11V31.71C245.33 31.7 221.85 55.18 221.85 84.04Z" fill="#FFD401"/>
<path d="M221.85 84.04V133.24H241.26V84.04C241.26 65.88 256.03 51.11 274.19 51.11V31.71C245.33 31.7 221.85 55.18 221.85 84.04Z" stroke="#FFD401" stroke-miterlimit="10"/>
<path d="M547.03 44.55L533.31 30.82L494 70.12L454.69 30.82L440.97 44.55L480.27 83.85L440.97 123.16L454.69 136.89L494 97.58L533.31 136.89L547.03 123.16L507.73 83.85L547.03 44.55Z" fill="#FFD401"/>
<path d="M547.03 44.55L533.31 30.82L494 70.12L454.69 30.82L440.97 44.55L480.27 83.85L440.97 123.16L454.69 136.89L494 97.58L533.31 136.89L547.03 123.16L507.73 83.85L547.03 44.55Z" stroke="#FFD401" stroke-miterlimit="10"/>
<path d="M385.77 51.11C400.55 51.11 413.09 60.9 417.24 74.34H354.3C358.45 60.9 370.98 51.11 385.77 51.11ZM437.21 93.72C437.8 90.58 438.11 87.35 438.11 84.04C438.11 55.18 414.63 31.7 385.77 31.7C356.91 31.7 333.43 55.18 333.43 84.04C333.43 112.9 356.91 136.38 385.77 136.38C402.78 136.38 417.92 128.22 427.49 115.62L411.85 104.13C411.79 104.2 411.74 104.27 411.68 104.35C405.65 112.03 396.28 116.98 385.78 116.98C371 116.98 358.46 107.18 354.31 93.74H437.17" fill="#FFD401"/>
<path d="M437.21 93.72C437.8 90.58 438.11 87.35 438.11 84.04C438.11 55.18 414.63 31.7 385.77 31.7C356.91 31.7 333.43 55.18 333.43 84.04C333.43 112.9 356.91 136.38 385.77 136.38C402.78 136.38 417.92 128.22 427.49 115.62L411.85 104.13C411.79 104.2 411.74 104.27 411.68 104.35C405.65 112.03 396.28 116.98 385.78 116.98C371 116.98 358.46 107.18 354.31 93.74H437.17M385.77 51.11C400.55 51.11 413.09 60.9 417.24 74.34H354.3C358.45 60.9 370.98 51.11 385.77 51.11Z" stroke="#FFD401" stroke-miterlimit="10"/>
<path d="M311.08 1.35001H291.67V133.24H311.08V54.11H330.69V34.7H311.08V1.35001Z" fill="#FFD401"/>
<path d="M311.08 1.35001H291.67V133.24H311.08V54.11H330.69V34.7H311.08V1.35001Z" stroke="#FFD401" stroke-miterlimit="10"/>
<path d="M183.33 43.49C174.31 36.13 162.81 31.7 150.29 31.7C130.75 31.7 112.98 42.45 103.99 59.6L82.21 99.34C76.49 110.22 65.31 116.97 53.04 116.97C34.88 116.97 20.11 102.19 20.11 84.03C20.11 65.87 34.88 51.1 53.04 51.1C67.93 51.1 80.53 61.04 84.59 74.62L95.82 54.14C86.35 40.63 70.77 31.7 53.04 31.7C24.18 31.7 0.700012 55.18 0.700012 84.04C0.700012 112.9 24.18 136.38 53.04 136.38C72.55 136.38 90.31 125.65 99.31 108.52L121.1 68.78C126.81 57.88 138 51.11 150.29 51.11C168.45 51.11 183.22 65.88 183.22 84.04C183.22 102.2 168.45 116.98 150.29 116.98C135.35 116.98 122.72 106.97 118.7 93.3L107.44 113.84C116.91 127.41 132.52 136.38 150.28 136.38C162.8 136.38 174.3 131.95 183.32 124.59V133.23H202.73V35.53H183.32V43.49H183.33Z" fill="#FFD401"/>
<path d="M183.33 43.49C174.31 36.13 162.81 31.7 150.29 31.7C130.75 31.7 112.98 42.45 103.99 59.6L82.21 99.34C76.49 110.22 65.31 116.97 53.04 116.97C34.88 116.97 20.11 102.19 20.11 84.03C20.11 65.87 34.88 51.1 53.04 51.1C67.93 51.1 80.53 61.04 84.59 74.62L95.82 54.14C86.35 40.63 70.77 31.7 53.04 31.7C24.18 31.7 0.700012 55.18 0.700012 84.04C0.700012 112.9 24.18 136.38 53.04 136.38C72.55 136.38 90.31 125.65 99.31 108.52L121.1 68.78C126.81 57.88 138 51.11 150.29 51.11C168.45 51.11 183.22 65.88 183.22 84.04C183.22 102.2 168.45 116.98 150.29 116.98C135.35 116.98 122.72 106.97 118.7 93.3L107.44 113.84C116.91 127.41 132.52 136.38 150.28 136.38C162.8 136.38 174.3 131.95 183.32 124.59V133.23H202.73V35.53H183.32V43.49H183.33Z" stroke="#FFD401" stroke-miterlimit="10"/>
<path d="M198.81 180.36L201.22 181.89C199.17 184.66 196.24 186.03 192.86 186.03C185.95 186.03 182.45 180.6 182.49 175.34C182.49 170.07 186.07 164.73 192.82 164.69C199.29 164.65 203.59 169.96 202.63 176.47H185.54C185.78 179.93 188.35 183.18 192.86 183.18C195.11 183.17 197.44 182.21 198.81 180.36ZM199.81 173.81C199.49 170.07 196.75 167.54 192.86 167.46C188.44 167.5 186.11 170.48 185.58 173.81H199.81Z" fill="#FFD401"/>
<path d="M198.81 180.36L201.22 181.89C199.17 184.66 196.24 186.03 192.86 186.03C185.95 186.03 182.45 180.6 182.49 175.34C182.49 170.07 186.07 164.73 192.82 164.69C199.29 164.65 203.59 169.96 202.63 176.47H185.54C185.78 179.93 188.35 183.18 192.86 183.18C195.11 183.17 197.44 182.21 198.81 180.36ZM199.81 173.81C199.49 170.07 196.75 167.54 192.86 167.46C188.44 167.5 186.11 170.48 185.58 173.81H199.81Z" stroke="#FFD401" stroke-miterlimit="10"/>
<path d="M210.63 165.2L211.03 167.09C212.19 165.8 214.49 164.96 216.9 164.92C222.41 165.04 226.47 167.97 226.47 173.93V185.59H223.33V173.93C223.29 170.03 220.64 168.02 217.02 167.78C215.29 167.7 212.68 168.22 211.07 169.79V185.59H207.98V165.2H210.63Z" fill="#FFD401"/>
<path d="M210.63 165.2L211.03 167.09C212.19 165.8 214.49 164.96 216.9 164.92C222.41 165.04 226.47 167.97 226.47 173.93V185.59H223.33V173.93C223.29 170.03 220.64 168.02 217.02 167.78C215.29 167.7 212.68 168.22 211.07 169.79V185.59H207.98V165.2H210.63Z" stroke="#FFD401" stroke-miterlimit="10"/>
<path d="M246.25 166.37V157.45H249.31V185.59H247.06L246.5 183.5C244.53 185.67 242.56 185.79 240.63 185.83C235.2 185.95 231.46 181.01 231.46 175.5C231.46 169.31 235.28 164.97 241.83 164.97C243.24 164.96 244.97 165.41 246.25 166.37ZM246.29 180.48V169.1C244.92 168.3 243.31 167.85 241.79 167.85C238.01 167.81 234.43 170.26 234.43 175.37C234.43 179.67 236.72 182.73 240.9 183.13C243 183.33 244.97 182.25 246.29 180.48Z" fill="#FFD401"/>
<path d="M246.25 166.37V157.45H249.31V185.59H247.06L246.5 183.5C244.53 185.67 242.56 185.79 240.63 185.83C235.2 185.95 231.46 181.01 231.46 175.5C231.46 169.31 235.28 164.97 241.83 164.97C243.24 164.96 244.97 165.41 246.25 166.37ZM246.29 180.48V169.1C244.92 168.3 243.31 167.85 241.79 167.85C238.01 167.81 234.43 170.26 234.43 175.37C234.43 179.67 236.72 182.73 240.9 183.13C243 183.33 244.97 182.25 246.29 180.48Z" stroke="#FFD401" stroke-miterlimit="10"/>
<path d="M261.98 185.67C257.8 186.11 255.55 184.06 255.55 179.6V157.25H258.73V179.6C258.73 181.89 259.33 183.1 261.99 182.9V185.67H261.98Z" fill="#FFD401"/>
<path d="M261.98 185.67C257.8 186.11 255.55 184.06 255.55 179.6V157.25H258.73V179.6C258.73 181.89 259.33 183.1 261.99 182.9V185.67H261.98Z" stroke="#FFD401" stroke-miterlimit="10"/>
<path d="M281.63 180.36L284.04 181.89C281.99 184.66 279.06 186.03 275.68 186.03C268.77 186.03 265.27 180.6 265.31 175.34C265.31 170.07 268.89 164.73 275.64 164.69C282.11 164.65 286.41 169.96 285.45 176.47H268.36C268.6 179.93 271.17 183.18 275.68 183.18C277.94 183.17 280.27 182.21 281.63 180.36ZM282.64 173.81C282.32 170.07 279.58 167.54 275.69 167.46C271.27 167.5 268.94 170.48 268.41 173.81H282.64Z" fill="#FFD401"/>
<path d="M281.63 180.36L284.04 181.89C281.99 184.66 279.06 186.03 275.68 186.03C268.77 186.03 265.27 180.6 265.31 175.34C265.31 170.07 268.89 164.73 275.64 164.69C282.11 164.65 286.41 169.96 285.45 176.47H268.36C268.6 179.93 271.17 183.18 275.68 183.18C277.94 183.17 280.27 182.21 281.63 180.36ZM282.64 173.81C282.32 170.07 279.58 167.54 275.69 167.46C271.27 167.5 268.94 170.48 268.41 173.81H282.64Z" stroke="#FFD401" stroke-miterlimit="10"/>
<path d="M303.47 179.96C303.47 184.26 299.33 186.03 296.11 186.03C293.38 186.03 290.8 184.95 289.24 182.69L291.17 180.72C292.42 182.25 294.11 183.21 296.12 183.21C298.09 183.25 300.42 182.25 300.42 179.91C300.38 177.9 297.85 177.06 296.16 176.73C292.82 176.17 289.81 174.76 289.77 170.9C289.77 167 293.27 164.79 296.93 164.79C298.98 164.79 301.31 165.43 302.96 167.12L301.15 169.17C299.74 167.96 298.46 167.68 296.93 167.64C294.84 167.6 292.79 168.77 292.83 170.9C292.83 172.95 295.24 173.55 296.85 173.88C300.21 174.57 303.47 176.02 303.47 179.96Z" fill="#FFD401"/>
<path d="M303.47 179.96C303.47 184.26 299.33 186.03 296.11 186.03C293.38 186.03 290.8 184.95 289.24 182.69L291.17 180.72C292.42 182.25 294.11 183.21 296.12 183.21C298.09 183.25 300.42 182.25 300.42 179.91C300.38 177.9 297.85 177.06 296.16 176.73C292.82 176.17 289.81 174.76 289.77 170.9C289.77 167 293.27 164.79 296.93 164.79C298.98 164.79 301.31 165.43 302.96 167.12L301.15 169.17C299.74 167.96 298.46 167.68 296.93 167.64C294.84 167.6 292.79 168.77 292.83 170.9C292.83 172.95 295.24 173.55 296.85 173.88C300.21 174.57 303.47 176.02 303.47 179.96Z" stroke="#FFD401" stroke-miterlimit="10"/>
<path d="M321.12 179.96C321.12 184.26 316.98 186.03 313.76 186.03C311.03 186.03 308.45 184.95 306.89 182.69L308.82 180.72C310.07 182.25 311.75 183.21 313.76 183.21C315.73 183.25 318.06 182.25 318.06 179.91C318.02 177.9 315.49 177.06 313.8 176.73C310.46 176.17 307.45 174.76 307.41 170.9C307.41 167 310.91 164.79 314.57 164.79C316.62 164.79 318.95 165.43 320.6 167.12L318.79 169.17C317.38 167.96 316.1 167.68 314.57 167.64C312.48 167.6 310.43 168.77 310.47 170.9C310.47 172.95 312.88 173.55 314.49 173.88C317.86 174.57 321.12 176.02 321.12 179.96Z" fill="#FFD401"/>
<path d="M321.12 179.96C321.12 184.26 316.98 186.03 313.76 186.03C311.03 186.03 308.45 184.95 306.89 182.69L308.82 180.72C310.07 182.25 311.75 183.21 313.76 183.21C315.73 183.25 318.06 182.25 318.06 179.91C318.02 177.9 315.49 177.06 313.8 176.73C310.46 176.17 307.45 174.76 307.41 170.9C307.41 167 310.91 164.79 314.57 164.79C316.62 164.79 318.95 165.43 320.6 167.12L318.79 169.17C317.38 167.96 316.1 167.68 314.57 167.64C312.48 167.6 310.43 168.77 310.47 170.9C310.47 172.95 312.88 173.55 314.49 173.88C317.86 174.57 321.12 176.02 321.12 179.96Z" stroke="#FFD401" stroke-miterlimit="10"/>
<path d="M354.29 175.5C354.29 181.61 349.79 185.87 344.6 185.83C342.87 185.83 341.06 185.51 339.46 184.42V193.43H336.44V165.2H338.89L339.37 167.33C340.42 166.04 342.31 165 344.11 164.96C350.59 164.76 354.29 169.02 354.29 175.5ZM351.31 175.38C351.31 170.15 347.93 167.74 344.35 167.82C342.66 167.86 340.89 168.62 339.45 170.03V181.17C340.86 182.74 342.54 183.42 344.84 183.14C349.02 182.73 351.31 179.68 351.31 175.38Z" fill="#FFD401"/>
<path d="M354.29 175.5C354.29 181.61 349.79 185.87 344.6 185.83C342.87 185.83 341.06 185.51 339.46 184.42V193.43H336.44V165.2H338.89L339.37 167.33C340.42 166.04 342.31 165 344.11 164.96C350.59 164.76 354.29 169.02 354.29 175.5ZM351.31 175.38C351.31 170.15 347.93 167.74 344.35 167.82C342.66 167.86 340.89 168.62 339.45 170.03V181.17C340.86 182.74 342.54 183.42 344.84 183.14C349.02 182.73 351.31 179.68 351.31 175.38Z" stroke="#FFD401" stroke-miterlimit="10"/>
<path d="M368.36 186.07C362.25 186.07 358.03 181.37 358.03 175.42C358.03 169.47 362.25 164.81 368.36 164.81C374.51 164.81 378.73 169.47 378.73 175.42C378.73 181.36 374.51 186.07 368.36 186.07ZM368.36 183.29C372.06 183.29 375.6 180.72 375.6 175.41C375.6 170.1 372.06 167.61 368.36 167.61C364.7 167.61 361.16 170.1 361.16 175.41C361.16 180.72 364.7 183.29 368.36 183.29Z" fill="#FFD401"/>
<path d="M368.36 186.07C362.25 186.07 358.03 181.37 358.03 175.42C358.03 169.47 362.25 164.81 368.36 164.81C374.51 164.81 378.73 169.47 378.73 175.42C378.73 181.36 374.51 186.07 368.36 186.07ZM368.36 183.29C372.06 183.29 375.6 180.72 375.6 175.41C375.6 170.1 372.06 167.61 368.36 167.61C364.7 167.61 361.16 170.1 361.16 175.41C361.16 180.72 364.7 183.29 368.36 183.29Z" stroke="#FFD401" stroke-miterlimit="10"/>
<path d="M396.47 179.96C396.47 184.26 392.33 186.03 389.11 186.03C386.38 186.03 383.8 184.95 382.24 182.69L384.17 180.72C385.42 182.25 387.11 183.21 389.12 183.21C391.09 183.25 393.42 182.25 393.42 179.91C393.38 177.9 390.85 177.06 389.16 176.73C385.82 176.17 382.81 174.76 382.77 170.9C382.77 167 386.27 164.79 389.93 164.79C391.98 164.79 394.31 165.43 395.96 167.12L394.15 169.17C392.74 167.96 391.46 167.68 389.93 167.64C387.84 167.6 385.79 168.77 385.83 170.9C385.83 172.95 388.24 173.55 389.85 173.88C393.21 174.57 396.47 176.02 396.47 179.96Z" fill="#FFD401"/>
<path d="M396.47 179.96C396.47 184.26 392.33 186.03 389.11 186.03C386.38 186.03 383.8 184.95 382.24 182.69L384.17 180.72C385.42 182.25 387.11 183.21 389.12 183.21C391.09 183.25 393.42 182.25 393.42 179.91C393.38 177.9 390.85 177.06 389.16 176.73C385.82 176.17 382.81 174.76 382.77 170.9C382.77 167 386.27 164.79 389.93 164.79C391.98 164.79 394.31 165.43 395.96 167.12L394.15 169.17C392.74 167.96 391.46 167.68 389.93 167.64C387.84 167.6 385.79 168.77 385.83 170.9C385.83 172.95 388.24 173.55 389.85 173.88C393.21 174.57 396.47 176.02 396.47 179.96Z" stroke="#FFD401" stroke-miterlimit="10"/>
<path d="M414.12 179.96C414.12 184.26 409.98 186.03 406.76 186.03C404.03 186.03 401.45 184.95 399.89 182.69L401.82 180.72C403.07 182.25 404.76 183.21 406.77 183.21C408.74 183.25 411.07 182.25 411.07 179.91C411.03 177.9 408.5 177.06 406.81 176.73C403.47 176.17 400.46 174.76 400.42 170.9C400.42 167 403.92 164.79 407.58 164.79C409.63 164.79 411.96 165.43 413.61 167.12L411.8 169.17C410.39 167.96 409.11 167.68 407.58 167.64C405.49 167.6 403.44 168.77 403.48 170.9C403.48 172.95 405.89 173.55 407.5 173.88C410.86 174.57 414.12 176.02 414.12 179.96Z" fill="#FFD401"/>
<path d="M414.12 179.96C414.12 184.26 409.98 186.03 406.76 186.03C404.03 186.03 401.45 184.95 399.89 182.69L401.82 180.72C403.07 182.25 404.76 183.21 406.77 183.21C408.74 183.25 411.07 182.25 411.07 179.91C411.03 177.9 408.5 177.06 406.81 176.73C403.47 176.17 400.46 174.76 400.42 170.9C400.42 167 403.92 164.79 407.58 164.79C409.63 164.79 411.96 165.43 413.61 167.12L411.8 169.17C410.39 167.96 409.11 167.68 407.58 167.64C405.49 167.6 403.44 168.77 403.48 170.9C403.48 172.95 405.89 173.55 407.5 173.88C410.86 174.57 414.12 176.02 414.12 179.96Z" stroke="#FFD401" stroke-miterlimit="10"/>
<path d="M419.06 157.28H422.32V161.78H419.06V157.28ZM419.1 165H422.28V185.58H419.1V165Z" fill="#FFD401"/>
<path d="M419.06 157.28H422.32V161.78H419.06V157.28ZM419.1 165H422.28V185.58H419.1V165Z" stroke="#FFD401" stroke-miterlimit="10"/>
<path d="M446.64 175.5C446.64 181.01 442.9 185.95 437.47 185.83C435.54 185.79 433.57 185.67 431.6 183.5L431.04 185.59H428.79V157.45H431.85V166.37C433.14 165.41 434.86 164.96 436.27 164.96C442.82 164.96 446.64 169.31 446.64 175.5ZM443.67 175.38C443.67 170.23 440.01 167.78 436.15 167.86C434.66 167.9 433.14 168.3 431.81 169.11V180.49C433.14 182.26 434.9 183.42 437.2 183.14C441.38 182.73 443.67 179.68 443.67 175.38Z" fill="#FFD401"/>
<path d="M446.64 175.5C446.64 181.01 442.9 185.95 437.47 185.83C435.54 185.79 433.57 185.67 431.6 183.5L431.04 185.59H428.79V157.45H431.85V166.37C433.14 165.41 434.86 164.96 436.27 164.96C442.82 164.96 446.64 169.31 446.64 175.5ZM443.67 175.38C443.67 170.23 440.01 167.78 436.15 167.86C434.66 167.9 433.14 168.3 431.81 169.11V180.49C433.14 182.26 434.9 183.42 437.2 183.14C441.38 182.73 443.67 179.68 443.67 175.38Z" stroke="#FFD401" stroke-miterlimit="10"/>
<path d="M451.83 157.28H455.09V161.78H451.83V157.28ZM451.87 165H455.05V185.58H451.87V165Z" fill="#FFD401"/>
<path d="M451.83 157.28H455.09V161.78H451.83V157.28ZM451.87 165H455.05V185.58H451.87V165Z" stroke="#FFD401" stroke-miterlimit="10"/>
<path d="M467.75 185.67C463.57 186.11 461.32 184.06 461.32 179.6V157.25H464.49V179.6C464.49 181.89 465.09 183.1 467.75 182.9V185.67Z" fill="#FFD401"/>
<path d="M467.75 185.67C463.57 186.11 461.32 184.06 461.32 179.6V157.25H464.49V179.6C464.49 181.89 465.09 183.1 467.75 182.9V185.67Z" stroke="#FFD401" stroke-miterlimit="10"/>
<path d="M472.46 157.28H475.72V161.78H472.46V157.28ZM472.5 165H475.68V185.58H472.5V165Z" fill="#FFD401"/>
<path d="M472.46 157.28H475.72V161.78H472.46V157.28ZM472.5 165H475.68V185.58H472.5V165Z" stroke="#FFD401" stroke-miterlimit="10"/>
<path d="M489.75 185.71C485.57 186.15 482.47 184.1 482.47 179.64V167.7H479.13V165.21H482.47V159.5L485.6 159.22V165.21H489.74V167.7H485.6V179.64C485.6 182.17 487.13 183.22 489.74 183.02V185.71H489.75Z" fill="#FFD401"/>
<path d="M489.75 185.71C485.57 186.15 482.47 184.1 482.47 179.64V167.7H479.13V165.21H482.47V159.5L485.6 159.22V165.21H489.74V167.7H485.6V179.64C485.6 182.17 487.13 183.22 489.74 183.02V185.71H489.75Z" stroke="#FFD401" stroke-miterlimit="10"/>
<path d="M494.73 157.28H497.99V161.78H494.73V157.28ZM494.77 165H497.95V185.58H494.77V165Z" fill="#FFD401"/>
<path d="M494.73 157.28H497.99V161.78H494.73V157.28ZM494.77 165H497.95V185.58H494.77V165Z" stroke="#FFD401" stroke-miterlimit="10"/>
<path d="M519.38 180.36L521.79 181.89C519.74 184.66 516.81 186.03 513.43 186.03C506.52 186.03 503.02 180.6 503.06 175.34C503.06 170.07 506.64 164.73 513.39 164.69C519.86 164.65 524.16 169.96 523.2 176.47H506.11C506.35 179.93 508.92 183.18 513.43 183.18C515.68 183.17 518.01 182.21 519.38 180.36ZM520.38 173.81C520.06 170.07 517.32 167.54 513.43 167.46C509.01 167.5 506.68 170.48 506.15 173.81H520.38Z" fill="#FFD401"/>
<path d="M519.38 180.36L521.79 181.89C519.74 184.66 516.81 186.03 513.43 186.03C506.52 186.03 503.02 180.6 503.06 175.34C503.06 170.07 506.64 164.73 513.39 164.69C519.86 164.65 524.16 169.96 523.2 176.47H506.11C506.35 179.93 508.92 183.18 513.43 183.18C515.68 183.17 518.01 182.21 519.38 180.36ZM520.38 173.81C520.06 170.07 517.32 167.54 513.43 167.46C509.01 167.5 506.68 170.48 506.15 173.81H520.38Z" stroke="#FFD401" stroke-miterlimit="10"/>
<path d="M541.21 179.96C541.21 184.26 537.07 186.03 533.85 186.03C531.12 186.03 528.54 184.95 526.98 182.69L528.91 180.72C530.16 182.25 531.84 183.21 533.85 183.21C535.82 183.25 538.15 182.25 538.15 179.91C538.11 177.9 535.58 177.06 533.89 176.73C530.55 176.17 527.54 174.76 527.5 170.9C527.5 167 531 164.79 534.66 164.79C536.71 164.79 539.04 165.43 540.69 167.12L538.88 169.17C537.47 167.96 536.19 167.68 534.66 167.64C532.57 167.6 530.52 168.77 530.56 170.9C530.56 172.95 532.97 173.55 534.58 173.88C537.95 174.57 541.21 176.02 541.21 179.96Z" fill="#FFD401"/>
<path d="M541.21 179.96C541.21 184.26 537.07 186.03 533.85 186.03C531.12 186.03 528.54 184.95 526.98 182.69L528.91 180.72C530.16 182.25 531.84 183.21 533.85 183.21C535.82 183.25 538.15 182.25 538.15 179.91C538.11 177.9 535.58 177.06 533.89 176.73C530.55 176.17 527.54 174.76 527.5 170.9C527.5 167 531 164.79 534.66 164.79C536.71 164.79 539.04 165.43 540.69 167.12L538.88 169.17C537.47 167.96 536.19 167.68 534.66 167.64C532.57 167.6 530.52 168.77 530.56 170.9C530.56 172.95 532.97 173.55 534.58 173.88C537.95 174.57 541.21 176.02 541.21 179.96Z" stroke="#FFD401" stroke-miterlimit="10"/>
</svg>
