<svg width="59" height="58" viewBox="0 0 59 58" fill="none" xmlns="http://www.w3.org/2000/svg">
<path d="M43.0565 58C43.0141 58 42.9718 57.9999 42.9294 57.9998C38.9301 57.9797 34.5725 56.9647 29.9776 54.9828C28.8286 54.4872 28.299 53.1541 28.7946 52.0051C29.2901 50.856 30.6232 50.3262 31.7723 50.8221C35.7476 52.5367 39.6134 53.4519 42.952 53.4685C42.9865 53.4688 43.021 53.4688 43.0553 53.4688C47.2321 53.4688 50.719 52.1996 53.1489 49.7947L53.1649 49.7769C54.6427 48.1304 54.5528 45.6371 52.9597 44.101C46.8764 38.235 44.0045 38.6603 41.3464 41.2525L37.1158 45.4516C36.4522 46.1103 35.4521 46.2938 34.598 45.9133C34.3585 45.8067 28.6589 43.2275 22.2361 36.8046L21.9379 36.5067C15.5142 30.083 12.9352 24.3835 12.8284 24.144C12.448 23.2899 12.6314 22.2899 13.2901 21.6263L17.49 17.3949C20.0818 14.737 20.5066 11.8652 14.6408 5.78222C13.1047 4.18926 10.6114 4.09931 8.96454 5.5774L8.94721 5.59304C6.52254 8.04285 5.25232 11.5674 5.27339 15.79C5.31406 23.9296 9.92856 33.3821 17.6186 41.081C17.6258 41.0879 17.6328 41.095 17.6398 41.102C19.1083 42.5704 20.7854 44.0301 22.6246 45.4402C23.6177 46.2016 23.8054 47.6237 23.044 48.6167C22.2825 49.6097 20.8604 49.7973 19.8675 49.0361C17.8805 47.5126 16.0605 45.9285 14.4575 44.3278C14.4503 44.3206 14.4429 44.3135 14.4358 44.3062C5.90776 35.7786 0.788707 25.1268 0.742262 15.8128C0.714848 10.3298 2.45824 5.67369 5.78417 2.34799C5.81283 2.31933 5.84229 2.29135 5.87253 2.26427L5.93756 2.20582C7.60856 0.705981 9.76373 -0.0749787 12.0074 0.0056774C14.2507 0.08656 16.3443 1.02113 17.9026 2.63708C20.9537 5.80113 22.7149 8.45214 23.4454 10.9798C24.452 14.4631 23.5366 17.6891 20.7248 20.568C20.7205 20.5724 20.7162 20.5767 20.712 20.581L17.6715 23.6443C18.7495 25.5565 21.1189 29.2796 25.1412 33.3019L25.4393 33.5998C29.4885 37.649 33.1905 40.0033 35.0948 41.0731L38.1609 38.0298C38.1652 38.0255 38.1696 38.0212 38.1739 38.017C41.053 35.2051 44.2788 34.2898 47.7621 35.2964C50.2899 36.0269 52.9408 37.7882 56.1048 40.8392C57.7208 42.3975 58.6553 44.4911 58.7362 46.7345C58.8172 48.978 58.0359 51.1335 56.5364 52.804L56.4777 52.8694C56.4506 52.8996 56.4227 52.929 56.3939 52.9577C53.0942 56.2578 48.4842 57.9999 43.0565 58ZM43.2225 23.1094C41.9712 23.1094 40.9569 24.1238 40.9569 25.3751C40.9569 26.6264 41.9712 27.6407 43.2225 27.6407C44.4738 27.6407 45.4882 26.6264 45.4882 25.3751C45.4882 24.1238 44.4738 23.1094 43.2225 23.1094ZM45.6007 18.1251V17.9793C45.6007 17.2448 46.0202 16.5911 46.6693 16.3139C49.8063 14.9747 51.8328 11.9055 51.832 8.49496C51.832 8.46267 51.8313 8.43061 51.83 8.39855C51.778 3.75856 47.9872 0.000126633 43.3352 0.000126633C38.6508 0.000126633 34.8398 3.81113 34.8398 8.49552C34.8398 9.74682 35.8542 10.7611 37.1055 10.7611C38.3568 10.7611 39.3711 9.74682 39.3711 8.49552C39.3711 6.30976 41.1494 4.53137 43.3352 4.53137C45.5211 4.53137 47.2993 6.30965 47.2993 8.49552C47.2993 8.51784 47.2996 8.54015 47.3002 8.56224C47.2748 10.128 46.3347 11.53 44.8903 12.1467C42.5694 13.1375 41.0696 15.4271 41.0696 17.9793V18.1251C41.0696 19.3764 42.0839 20.3907 43.3352 20.3907C44.5865 20.3907 45.6007 19.3764 45.6007 18.1251Z" fill="white"/>
</svg>
