<svg width="49" height="59" viewBox="0 0 49 59" fill="none" xmlns="http://www.w3.org/2000/svg">
<path d="M36.6233 12.2498H20.5298C19.2768 12.2498 18.2613 13.2654 18.2613 14.5183C18.2613 15.7712 19.2768 16.7868 20.5298 16.7868H36.6233C37.8763 16.7868 38.8918 15.7712 38.8918 14.5183C38.8918 13.2654 37.8762 12.2498 36.6233 12.2498Z" fill="white"/>
<path d="M36.6233 21.3236H20.5298C19.2768 21.3236 18.2613 22.3392 18.2613 23.5921C18.2613 24.845 19.2768 25.8606 20.5298 25.8606H36.6233C37.8762 25.8606 38.8918 24.845 38.8918 23.5921C38.8918 22.3392 37.8763 21.3236 36.6233 21.3236Z" fill="white"/>
<path d="M27.4486 30.3975H20.5298C19.2768 30.3975 18.2613 31.413 18.2613 32.666C18.2613 33.9189 19.2768 34.9344 20.5298 34.9344H27.4486C28.7015 34.9344 29.7171 33.9189 29.7171 32.666C29.7171 31.413 28.7015 30.3975 27.4486 30.3975Z" fill="white"/>
<path d="M45.8233 30.8511C47.0762 30.8511 48.0917 29.8356 48.0917 28.5827V9.07392C48.0917 4.07052 44.0211 0 39.0178 0H18.1479C13.1473 0 9.07858 4.06598 9.07393 9.06553C4.07063 9.06553 0 13.1361 0 18.1395V48.9906C0 53.9939 4.07052 58.0645 9.07393 58.0645H31.0781C36.0814 58.0645 40.152 53.994 40.152 48.9906V48.9216C44.6218 48.3616 48.0916 44.5371 48.0916 39.9184C48.0916 38.6655 47.0761 37.6499 45.8232 37.6499C44.5702 37.6499 43.5547 38.6655 43.5547 39.9184C43.5547 42.4194 41.5199 44.4548 39.0188 44.4553L18.1489 44.4604H18.1479C16.9361 44.4604 15.7969 43.9887 14.9401 43.1319C14.083 42.275 13.6109 41.1355 13.6109 39.9235V9.07392C13.6109 6.57228 15.6462 4.53696 18.1479 4.53696H39.0179C41.5196 4.53696 43.5549 6.57228 43.5549 9.07392V28.5828C43.5548 29.8356 44.5703 30.8511 45.8233 30.8511ZM18.1479 48.9972H18.1501L35.615 48.9929C35.6137 51.4934 33.5789 53.5273 31.0781 53.5273H9.07404C6.57239 53.5273 4.53708 51.492 4.53708 48.9904V18.1392C4.53708 15.6376 6.57239 13.6023 9.07404 13.6023V39.9234C9.07404 42.3474 10.0182 44.6265 11.7324 46.3403C13.4463 48.0538 15.7243 48.9972 18.1479 48.9972Z" fill="white"/>
</svg>
