<svg width="66" height="52" viewBox="0 0 66 52" fill="none" xmlns="http://www.w3.org/2000/svg">
<path fill-rule="evenodd" clip-rule="evenodd" d="M15.8947 51.5215H50.6625C59.1196 51.5215 66 44.6564 66 36.2181V15.3034C66 6.86511 59.1196 0 50.6625 0H15.8974C7.44029 0 0.559875 6.86511 0.559875 15.3034V36.2208C0.559875 44.6575 7.43901 51.5215 15.8947 51.5215ZM5.69245 14.6607C6.02595 9.33338 10.4757 5.10114 15.8974 5.10114H50.6625C56.0842 5.10114 60.5339 9.33338 60.8674 14.6607H5.69245ZM5.67239 20.5372V36.2208C5.67239 41.8448 10.2582 46.4204 15.8947 46.4204H50.6625C56.3005 46.4204 60.8875 41.8436 60.8875 36.2181V20.5372H5.67239Z" fill="white"/>
</svg>
