<svg width="33" height="32" viewBox="0 0 33 32" fill="none" xmlns="http://www.w3.org/2000/svg">
<path fill-rule="evenodd" clip-rule="evenodd" d="M25.6829 28.9425L28.908 25.7173L27.7721 21.5908L28.267 20.4089L32.0015 18.3017V13.7409L28.2776 11.6249L27.791 10.4451L28.9412 6.31644L25.7138 3.09372L21.5869 4.22925L20.4076 3.73483L18.3002 0H13.7395L11.6234 3.72387L10.4439 4.21032L6.3159 3.05877L3.09353 6.28114L4.22925 10.4087L3.73483 11.5879L0 13.6954V18.2548L3.72052 20.3756L4.2075 21.5564L3.05755 25.6843L6.28114 28.9079L10.4087 27.7722L11.5881 28.2667L13.6956 32H18.2552L20.3744 28.2794L21.5549 27.7925L25.6829 28.9425ZM25.9688 18.3653L24.7006 21.394L25.6539 24.8572L24.8271 25.684L21.3713 24.7213L18.3412 25.971L16.5642 29.0907H15.3941L13.6318 25.9689L10.6064 24.7004L7.14142 25.6539L6.31602 24.8285L7.27872 21.3726L6.02916 18.3428L2.90928 16.5644V15.3942L6.03247 13.6319L7.30104 10.6063L6.34762 7.14132L7.17131 6.31764L10.6271 7.28167L13.6582 6.03158L15.4325 2.90918H16.6014L18.3637 6.03238L21.3893 7.30094L24.855 6.34734L25.6824 7.17361L24.7199 10.6287L25.9699 13.6596L29.0923 15.4338V16.6028L25.9688 18.3653ZM16.0008 21.8191C12.7873 21.8191 10.1823 19.2141 10.1823 16.0007C10.1823 12.7872 12.7873 10.1822 16.0008 10.1822C19.2142 10.1822 21.8192 12.7872 21.8192 16.0007C21.8192 19.2141 19.2142 21.8191 16.0008 21.8191ZM18.91 16.0006C18.91 17.6074 17.6075 18.9099 16.0008 18.9099C14.3941 18.9099 13.0916 17.6074 13.0916 16.0006C13.0916 14.3939 14.3941 13.0914 16.0008 13.0914C17.6075 13.0914 18.91 14.3939 18.91 16.0006Z" fill="black"/>
</svg>
