<svg width="32" height="32" viewBox="0 0 32 32" fill="none" xmlns="http://www.w3.org/2000/svg">
<path fill-rule="evenodd" clip-rule="evenodd" d="M12.9902 25.9805C5.81593 25.9805 0 20.1645 0 12.9902C0 5.81593 5.81593 0 12.9902 0C20.1645 0 25.9805 5.81593 25.9805 12.9902C25.9805 15.9921 24.9622 18.7562 23.2523 20.9559L32 29.7036L29.7036 32L20.9559 23.2523C18.7562 24.9622 15.9921 25.9805 12.9902 25.9805ZM22.7329 12.9903C22.7329 18.3711 18.3709 22.733 12.9902 22.733C7.60946 22.733 3.24751 18.3711 3.24751 12.9903C3.24751 7.6096 7.60946 3.24766 12.9902 3.24766C18.3709 3.24766 22.7329 7.6096 22.7329 12.9903Z" fill="black"/>
</svg>
