<svg width="202" height="102" viewBox="0 0 202 102" fill="none" xmlns="http://www.w3.org/2000/svg">
<path fill-rule="evenodd" clip-rule="evenodd" d="M171.723 54.7536H190.354C191.497 54.7536 192.424 55.677 192.424 56.8159V93.9375C192.424 95.0764 191.497 95.9998 190.354 95.9998H128.251C127.107 95.9998 126.18 95.0764 126.18 93.9375V56.8159C126.18 55.677 127.107 54.7536 128.251 54.7536H163.443C164.586 54.7536 165.513 55.677 165.513 56.8159C165.513 57.9548 164.586 58.8782 163.443 58.8782H140.485C139.601 64.0622 135.524 68.1234 130.321 69.0045V81.7489C135.524 82.63 139.601 86.6912 140.485 91.8751H178.119C179.004 86.6912 183.08 82.63 188.284 81.7489V69.0045C183.08 68.1234 179.004 64.0622 178.119 58.8782H171.723C170.58 58.8782 169.653 57.9548 169.653 56.8159C169.653 55.677 170.58 54.7536 171.723 54.7536ZM188.284 58.8782H182.342C183.097 61.7804 185.371 64.0461 188.284 64.7973V58.8782ZM136.262 58.8782H130.321V64.7973C133.234 64.0461 135.508 61.7804 136.262 58.8782ZM130.321 85.9561V91.8751H136.262C135.508 88.973 133.234 86.7073 130.321 85.9561ZM182.342 91.8751H188.284V85.9561C185.371 86.7073 183.097 88.973 182.342 91.8751ZM165.927 75.3767C165.927 71.8565 163.24 69.0023 159.927 69.0023C156.614 69.0023 153.928 71.8565 153.928 75.3767C153.928 78.897 156.614 81.7511 159.927 81.7511C161.032 81.7511 161.927 82.7025 161.927 83.8759C161.927 85.0493 161.032 86.0007 159.927 86.0007C154.405 86.0007 149.928 81.2438 149.928 75.3767C149.928 69.5097 154.405 64.7527 159.927 64.7527C165.449 64.7527 169.926 69.5097 169.926 75.3767C169.926 76.5501 169.031 77.5015 167.926 77.5015C166.822 77.5015 165.927 76.5501 165.927 75.3767ZM180.238 77.2517C181.446 77.2517 182.425 76.4123 182.425 75.3769C182.425 74.3415 181.446 73.5021 180.238 73.5021H175.863C174.655 73.5021 173.676 74.3415 173.676 75.3769C173.676 76.4123 174.655 77.2517 175.863 77.2517H180.238ZM137.429 75.3769C137.429 74.3415 138.269 73.5021 139.304 73.5021H143.054C144.089 73.5021 144.929 74.3415 144.929 75.3769C144.929 76.4123 144.089 77.2517 143.054 77.2517H139.304C138.269 77.2517 137.429 76.4123 137.429 75.3769Z" fill="black"/>
<path fill-rule="evenodd" clip-rule="evenodd" d="M77.2142 64.4471C78.2004 64.4471 78.9999 65.2425 78.9999 66.2234C78.9999 67.2044 78.2004 67.9998 77.2142 67.9998H5.78565C4.7995 67.9998 3.99994 67.2044 3.99994 66.2234V59.1182C3.99994 58.1372 4.7995 57.3419 5.78565 57.3419H11.1428V52.013C11.1428 51.032 11.9424 50.2367 12.9285 50.2367H25.4285V25.3683H21.8571V44.9077C21.8571 45.8887 21.0575 46.684 20.0714 46.684C19.0852 46.684 18.2857 45.8887 18.2857 44.9077V25.3683H12.9285C12.1595 25.3683 11.4776 24.8791 11.2343 24.154C10.9911 23.4281 11.2422 22.6301 11.8569 22.1713L40.4283 0.855582C41.0631 0.381147 41.9368 0.381147 42.5715 0.855582L71.143 22.1713C71.7577 22.6301 72.0088 23.4281 71.7655 24.154C71.5223 24.8791 70.8404 25.3683 70.0714 25.3683H57.5714V50.2367H61.1428V30.6972C61.1428 29.7163 61.9424 28.9209 62.9285 28.9209C63.9147 28.9209 64.7142 29.7163 64.7142 30.6972V50.2367H70.0714C71.0575 50.2367 71.8571 51.032 71.8571 52.013V57.3419H77.2142C78.2004 57.3419 78.9999 58.1372 78.9999 59.1182C78.9999 60.0992 78.2004 60.8945 77.2142 60.8945H7.57137V64.4471H77.2142ZM46.8571 50.2367H53.9999V25.3683H46.8571V50.2367ZM39.7142 25.3683V50.2367H43.2857V25.3683H39.7142ZM64.7142 21.8157L41.4999 4.49667L18.2857 21.8157H64.7142ZM36.1428 25.3683H28.9999V50.2367H36.1428V25.3683ZM68.2857 57.3419V53.7893H14.7142V57.3419H68.2857ZM45.7857 14.4283C45.7857 17.3868 43.387 19.7855 40.4285 19.7855C37.47 19.7855 35.0714 17.3868 35.0714 14.4283C35.0714 11.4699 37.47 9.07118 40.4285 9.07118C43.387 9.07118 45.7857 11.4699 45.7857 14.4283ZM42.2142 14.4283C42.2142 13.4422 41.4147 12.6426 40.4285 12.6426C39.4424 12.6426 38.6428 13.4422 38.6428 14.4283C38.6428 15.4145 39.4424 16.214 40.4285 16.214C41.4147 16.214 42.2142 15.4145 42.2142 14.4283Z" fill="black"/>
<path d="M104.339 61.7C103.857 61.3054 103.201 61.2272 102.646 61.4998C102.087 61.7757 101.73 62.3584 101.728 62.9997V64.6663H93.6698V54.6664C93.6698 53.746 92.9481 52.9998 92.0581 52.9998C91.1681 52.9998 90.4465 53.746 90.4465 54.6664V66.333C90.4465 67.2534 91.1681 67.9996 92.0581 67.9996H103.34C104.182 68.0021 104.884 67.334 104.951 66.4664L108.819 69.6663L104.951 72.8661C104.884 71.9986 104.182 71.3305 103.34 71.3329H92.0581C89.3881 71.3329 87.2232 69.0942 87.2232 66.333V54.6664C87.2232 53.746 86.5016 52.9998 85.6116 52.9998C84.7216 52.9998 83.9999 53.746 83.9999 54.6664V66.333C83.9999 70.935 87.608 74.6662 92.0581 74.6662H101.728V76.3329C101.73 76.9742 102.087 77.5568 102.646 77.8327C102.861 77.9467 103.099 78.0036 103.34 77.9996C103.703 77.9971 104.055 77.8685 104.339 77.6325L112.397 70.9659C112.778 70.6502 113 70.1717 113 69.6663C113 69.1609 112.778 68.6824 112.397 68.3667L104.339 61.7Z" fill="black"/>
<path d="M101.661 41.2995C102.143 41.6942 102.799 41.7723 103.354 41.4997C103.913 41.2238 104.27 40.6411 104.272 39.9998V38.3332H112.33V48.3331C112.33 49.2535 113.052 49.9998 113.942 49.9998C114.832 49.9998 115.553 49.2535 115.553 48.3331V36.6665C115.553 35.7461 114.832 34.9999 113.942 34.9999H102.66C101.818 34.9974 101.116 35.6656 101.049 36.5331L97.1809 33.3332L101.049 30.1334C101.116 31.0009 101.818 31.669 102.66 31.6666H113.942C116.612 31.6666 118.777 33.9053 118.777 36.6665V48.3331C118.777 49.2535 119.498 49.9998 120.388 49.9998C121.278 49.9998 122 49.2535 122 48.3331V36.6665C122 32.0645 118.392 28.3333 113.942 28.3333H104.272V26.6666C104.27 26.0253 103.913 25.4427 103.354 25.1668C103.139 25.0529 102.901 24.9959 102.66 25C102.297 25.0024 101.945 25.131 101.661 25.367L93.6027 32.0336C93.2219 32.3493 92.9999 32.8279 92.9999 33.3332C92.9999 33.8386 93.2219 34.3171 93.6027 34.6329L101.661 41.2995Z" fill="black"/>
</svg>
