<svg width="191" height="98" viewBox="0 0 191 98" fill="none" xmlns="http://www.w3.org/2000/svg">
<path fill-rule="evenodd" clip-rule="evenodd" d="M2.04585 53.1913H75.6958C76.2384 53.1913 76.7588 53.4068 77.1425 53.7905C77.5261 54.1741 77.7417 54.6945 77.7417 55.2371V96.1538C77.7417 96.6964 77.5261 97.2167 77.1425 97.6004C76.7588 97.9841 76.2384 98.1996 75.6958 98.1996H2.04585C1.50326 98.1996 0.982894 97.9841 0.599226 97.6004C0.215558 97.2167 1.52588e-05 96.6964 1.52588e-05 96.1538V55.2371C1.52588e-05 54.6945 0.215558 54.1741 0.599226 53.7905C0.982894 53.4068 1.50326 53.1913 2.04585 53.1913ZM9.94276 57.2829H4.09168V63.134C5.4973 62.7634 6.77946 62.0265 7.80736 60.9986C8.83526 59.9707 9.57212 58.6886 9.94276 57.2829ZM4.09168 88.2568V94.1079H9.94276C9.57212 92.7023 8.83526 91.4201 7.80736 90.3922C6.77946 89.3643 5.4973 88.6275 4.09168 88.2568ZM67.7989 94.1079H73.65V88.2568C72.2444 88.6275 70.9622 89.3643 69.9343 90.3922C68.9064 91.4201 68.1696 92.7023 67.7989 94.1079ZM67.0241 87.482C68.8242 85.682 71.1399 84.487 73.65 84.0629V67.328C71.1399 66.9039 68.8242 65.7089 67.0241 63.9088C65.2241 62.1088 64.0291 59.793 63.605 57.2829H14.1367C13.7126 59.793 12.5176 62.1088 10.7176 63.9088C8.91753 65.7089 6.60175 66.9039 4.09168 67.328V84.0629C6.60175 84.487 8.91753 85.682 10.7176 87.482C12.5176 89.2821 13.7126 91.5979 14.1367 94.1079H63.605C64.0291 91.5979 65.2241 89.2821 67.0241 87.482ZM69.9343 60.9986C70.9622 62.0265 72.2444 62.7634 73.65 63.134V57.2829H67.7989C68.1696 58.6886 68.9064 59.9707 69.9343 60.9986ZM20.4583 73.6498H14.3208V77.7414H20.4583V73.6498ZM57.2833 73.6498H63.4208V77.7414H57.2833V73.6498ZM39.8937 71.6038H37.8478C37.5765 71.6038 37.3164 71.7115 37.1245 71.9034C36.9327 72.0952 36.8249 72.3554 36.8249 72.6267C36.8249 72.898 36.9327 73.1582 37.1245 73.35C37.3164 73.5418 37.5765 73.6496 37.8478 73.6496H39.8937C41.1603 73.6508 42.3814 74.122 43.3206 74.9718C44.2598 75.8217 44.8502 76.9899 44.9775 78.2501C45.1048 79.5103 44.76 80.7729 44.0098 81.7934C43.2596 82.814 42.1574 83.5199 40.9166 83.7744V85.9246H36.8249V83.7744C35.67 83.5387 34.632 82.9113 33.8864 81.9983C33.1408 81.0854 32.7335 79.9429 32.7333 78.7642H36.8249C36.8249 79.0355 36.9327 79.2957 37.1245 79.4875C37.3164 79.6793 37.5765 79.7871 37.8478 79.7871H39.8937C40.165 79.7871 40.4252 79.6793 40.617 79.4875C40.8088 79.2957 40.9166 79.0355 40.9166 78.7642C40.9166 78.4929 40.8088 78.2327 40.617 78.0409C40.4252 77.849 40.165 77.7413 39.8937 77.7413H37.8478C36.5812 77.7401 35.3601 77.2689 34.4209 76.419C33.4818 75.5691 32.8914 74.401 32.764 73.1408C32.6367 71.8806 32.9816 70.618 33.7318 69.5974C34.4819 68.5769 35.5841 67.871 36.8249 67.6164V65.4663H40.9166V67.6164C42.0715 67.8522 43.1095 68.4796 43.8551 69.3925C44.6007 70.3055 45.008 71.448 45.0083 72.6267H40.9166C40.9166 72.3554 40.8088 72.0952 40.617 71.9034C40.4252 71.7115 40.165 71.6038 39.8937 71.6038ZM38.8709 59.3288C35.6339 59.3288 32.4696 60.2887 29.7781 62.087C27.0866 63.8854 24.9889 66.4416 23.7501 69.4322C22.5114 72.4228 22.1872 75.7136 22.8188 78.8884C23.4503 82.0632 25.009 84.9795 27.298 87.2684C29.5869 89.5573 32.5031 91.1161 35.678 91.7476C38.8528 92.3791 42.1436 92.055 45.1342 90.8163C48.1248 89.5775 50.6809 87.4797 52.4793 84.7883C54.2777 82.0968 55.2376 78.9324 55.2376 75.6954C55.2327 71.3562 53.5068 67.1961 50.4385 64.1278C47.3703 61.0595 43.2102 59.3336 38.8709 59.3288ZM38.8709 87.9704C36.4432 87.9704 34.0699 87.2505 32.0513 85.9017C30.0327 84.5529 28.4594 82.6358 27.5303 80.3929C26.6013 78.1499 26.3582 75.6818 26.8318 73.3007C27.3054 70.9196 28.4745 68.7324 30.1912 67.0157C31.9079 65.299 34.0951 64.1299 36.4762 63.6563C38.8573 63.1827 41.3254 63.4257 43.5684 64.3548C45.8113 65.2839 47.7284 66.8572 49.0772 68.8758C50.426 70.8944 51.1459 73.2677 51.1459 75.6954C51.1427 78.95 49.8484 82.0703 47.5471 84.3716C45.2458 86.6729 42.1255 87.9672 38.8709 87.9704ZM98.2 63.4203H85.925V67.5119H98.2V63.4203ZM104.338 63.4203H112.521V67.5119H104.338V63.4203ZM122.75 63.4203H118.658V67.5119H122.75V63.4203ZM85.925 73.6498H98.2V77.7414H85.925V73.6498ZM112.521 73.6498H104.338V77.7414H112.521V73.6498ZM85.925 83.8788H94.1084V87.9704H85.925V83.8788ZM104.337 83.8788H100.246V87.9704H104.337V83.8788Z" fill="black"/>
<path fill-rule="evenodd" clip-rule="evenodd" d="M184.292 -0.000144958H131.1C129.474 0.00471203 127.915 0.652898 126.766 1.80285C125.616 2.95281 124.967 4.51108 124.963 6.13736V36.8249C124.967 38.4511 125.616 40.0094 126.766 41.1594C127.915 42.3093 129.474 42.9575 131.1 42.9624H184.292C185.918 42.9575 187.476 42.3093 188.626 41.1594C189.776 40.0094 190.424 38.4511 190.429 36.8249V6.13736C190.424 4.51108 189.776 2.95281 188.626 1.80285C187.476 0.652898 185.918 0.00471203 184.292 -0.000144958ZM186.338 36.8249C186.338 37.3674 186.122 37.8878 185.738 38.2715C185.355 38.6551 184.834 38.8707 184.292 38.8707H131.1C130.557 38.8707 130.037 38.6551 129.653 38.2715C129.27 37.8878 129.054 37.3674 129.054 36.8249V18.4124H186.338V36.8249ZM186.338 14.3207H129.054V12.2749H186.338V14.3207ZM186.338 8.18319H129.054V6.13736C129.054 5.59477 129.27 5.0744 129.653 4.69073C130.037 4.30706 130.557 4.09152 131.1 4.09152H184.292C184.834 4.09152 185.355 4.30706 185.738 4.69073C186.122 5.0744 186.338 5.59477 186.338 6.13736V8.18319ZM179.177 26.5959H170.994C169.637 26.5959 168.336 27.1347 167.377 28.0939C166.418 29.0531 165.879 30.354 165.879 31.7104C165.879 33.0669 166.418 34.3678 167.377 35.327C168.336 36.2862 169.637 36.825 170.994 36.825H179.177C180.534 36.825 181.835 36.2862 182.794 35.327C183.753 34.3678 184.292 33.0669 184.292 31.7104C184.292 30.354 183.753 29.0531 182.794 28.0939C181.835 27.1347 180.534 26.5959 179.177 26.5959ZM179.177 32.7334H170.994C170.723 32.7334 170.462 32.6256 170.271 32.4338C170.079 32.2419 169.971 31.9817 169.971 31.7104C169.971 31.4392 170.079 31.179 170.271 30.9871C170.462 30.7953 170.723 30.6875 170.994 30.6875H179.177C179.448 30.6875 179.709 30.7953 179.9 30.9871C180.092 31.179 180.2 31.4392 180.2 31.7104C180.2 31.9817 180.092 32.2419 179.9 32.4338C179.709 32.6256 179.448 32.7334 179.177 32.7334ZM118.825 10.2288H106.55V14.3205H118.825V10.2288ZM92.2293 10.2288H100.413V14.3205H92.2293V10.2288ZM86.0917 10.2288H82V14.3205H86.0917V10.2288ZM106.55 20.4584H118.825V24.55H106.55V20.4584ZM100.413 20.4584H92.2293V24.55H100.413V20.4584ZM110.642 30.6874H118.825V34.779H110.642V30.6874ZM104.504 30.6874H100.413V34.779H104.504V30.6874Z" fill="black"/>
</svg>
