<svg width="172" height="102" viewBox="0 0 172 102" fill="none" xmlns="http://www.w3.org/2000/svg">
<path d="M154.855 62.8997H166C167.878 62.8997 169.4 64.4219 169.4 66.2997V96.8997C169.4 98.7774 167.878 100.3 166 100.3H154.855V62.8997Z" fill="#A4C400"/>
<path d="M166 62.8997H160.9C162.778 62.8997 164.3 64.4219 164.3 66.2997V96.8997C164.3 98.7774 162.778 100.3 160.9 100.3H166C167.878 100.3 169.4 98.7774 169.4 96.8997V66.2997C169.4 64.4219 167.878 62.8997 166 62.8997Z" fill="#90AC00"/>
<path d="M146.355 62.8997H157.5C159.378 62.8997 160.9 64.4219 160.9 66.2997V96.8997C160.9 98.7774 159.378 100.3 157.5 100.3H146.355V62.8997Z" fill="#60A917"/>
<path d="M56.1 1.69995H8.49995C4.74442 1.69995 1.69995 4.74442 1.69995 8.49995V39.1C1.69995 42.8555 4.74442 45.9 8.49995 45.9H56.1C59.8555 45.9 62.9 42.8555 62.9 39.1V8.49995C62.9 4.74442 59.8555 1.69995 56.1 1.69995Z" fill="#FFDC00"/>
<path d="M56.1 1.69995H51C54.7555 1.69995 57.8 4.74442 57.8 8.49995V39.1C57.8 42.8555 54.7555 45.9 51 45.9H56.1C59.8555 45.9 62.9 42.8555 62.9 39.1V8.49995C62.9 4.74442 59.8555 1.69995 56.1 1.69995Z" fill="#FEC108"/>
<path d="M22.1 27.2H62.9V37.3999H1.69995V27.2H11.9H22.1Z" fill="#3F51B5"/>
<path d="M57.8 27.2H62.9V37.3999H57.8V27.2Z" fill="#283593"/>
<path d="M44.2 15.2998C46.0778 15.2998 47.6 13.7775 47.6 11.8998C47.6 10.022 46.0778 8.49976 44.2 8.49976C42.3223 8.49976 40.8 10.022 40.8 11.8998C40.8 13.7775 42.3223 15.2998 44.2 15.2998Z" fill="#FF9801"/>
<path d="M51.0001 15.2998C52.8779 15.2998 54.4001 13.7775 54.4001 11.8998C54.4001 10.022 52.8779 8.49976 51.0001 8.49976C49.1223 8.49976 47.6001 10.022 47.6001 11.8998C47.6001 13.7775 49.1223 15.2998 51.0001 15.2998Z" fill="#F5F5F5"/>
<path d="M137.855 62.8997H149C150.878 62.8997 152.4 64.4219 152.4 66.2997V96.8997C152.4 98.7774 150.878 100.3 149 100.3H137.855V62.8997Z" fill="#A4C400"/>
<path d="M140.5 62.8997H86.1002C84.2224 62.8997 82.7002 64.4219 82.7002 66.2997V96.8997C82.7002 98.7774 84.2224 100.3 86.1002 100.3H140.5C142.378 100.3 143.9 98.7774 143.9 96.8997V66.2997C143.9 64.4219 142.378 62.8997 140.5 62.8997Z" fill="#60A917"/>
<path d="M140.5 62.8997H135.4C137.278 62.8997 138.8 64.4219 138.8 66.2997V96.8997C138.8 98.7774 137.278 100.3 135.4 100.3H140.5C142.378 100.3 143.9 98.7774 143.9 96.8997V66.2997C143.9 64.4219 142.378 62.8997 140.5 62.8997Z" fill="#549414"/>
<path d="M113.3 95.1998C120.811 95.1998 126.9 89.1108 126.9 81.5998C126.9 74.0887 120.811 67.9998 113.3 67.9998C105.789 67.9998 99.7 74.0887 99.7 81.5998C99.7 89.1108 105.789 95.1998 113.3 95.1998Z" fill="#A4C400"/>
<path d="M94.6002 62.8997C94.6002 69.4718 89.2724 74.7997 82.7002 74.7997V66.2997C82.7058 64.4242 84.2248 62.9053 86.1002 62.8997H94.6002Z" fill="#FFDC00"/>
<path d="M143.9 66.2997V74.7997C137.328 74.7997 132 69.4718 132 62.8997H140.5C142.375 62.9053 143.894 64.4242 143.9 66.2997Z" fill="#FFDC00"/>
<path d="M140.5 62.8997H135.4C137.276 62.9053 138.795 64.4242 138.8 66.2997V73.642C140.393 74.4028 142.135 74.7984 143.9 74.7997V66.2997C143.895 64.4242 142.376 62.9053 140.5 62.8997Z" fill="#FEC108"/>
<path d="M94.6002 100.3H86.1002C84.2248 100.294 82.7058 98.7751 82.7002 96.8997V88.3997C89.2724 88.3997 94.6002 93.7275 94.6002 100.3Z" fill="#FFDC00"/>
<path d="M143.9 88.3997V96.8997C143.894 98.7751 142.375 100.294 140.5 100.3H132C132 93.7275 137.328 88.3997 143.9 88.3997Z" fill="#FFDC00"/>
<path d="M138.8 89.5574V96.8997C138.795 98.7751 137.276 100.294 135.4 100.3H140.5C142.376 100.294 143.895 98.7751 143.9 96.8997V88.3997C142.135 88.401 140.393 88.7965 138.8 89.5574Z" fill="#FEC108"/>
<path d="M64.6 39.0998V8.49976C64.5944 3.80767 60.7921 0.00537626 56.1 -0.000244141H8.5C3.80791 0.00537626 0.0056204 3.80767 0 8.49976V39.0998C0.0056204 43.7918 3.80791 47.5941 8.5 47.5998H56.1C60.7921 47.5941 64.5944 43.7918 64.6 39.0998ZM8.5 3.39976H56.1C58.9167 3.39976 61.2 5.6831 61.2 8.49976V25.4998H22.1C21.1611 25.4998 20.4 26.2609 20.4 27.1998C20.4 28.1386 21.1611 28.8998 22.1 28.8998H61.2V35.6998H3.4V28.8998H11.9C12.8389 28.8998 13.6 28.1386 13.6 27.1998C13.6 26.2609 12.8389 25.4998 11.9 25.4998H3.4V8.49976C3.4 5.6831 5.68335 3.39976 8.5 3.39976ZM3.4 39.0998H61.2C61.2 41.9164 58.9167 44.1998 56.1 44.1998H8.5C5.68335 44.1998 3.4 41.9164 3.4 39.0998Z" fill="black"/>
<path d="M44.2 16.9996C45.4587 16.9951 46.6706 16.5225 47.6 15.6736C49.6376 17.5256 52.7775 17.4258 54.6934 15.4481C56.6092 13.4703 56.6092 10.3288 54.6934 8.35109C52.7775 6.37334 49.6376 6.27351 47.6 8.12558C45.9113 6.59079 43.4086 6.36452 41.4721 7.57156C39.5355 8.77859 38.6365 11.1251 39.2707 13.3171C39.9049 15.5092 41.9181 17.0131 44.2 16.9996ZM51 10.1996C51.9389 10.1996 52.7 10.9607 52.7 11.8996C52.7 12.8385 51.9389 13.5996 51 13.5996C50.0611 13.5996 49.3 12.8385 49.3 11.8996C49.3 10.9607 50.0611 10.1996 51 10.1996ZM44.2 10.1996C45.1389 10.1996 45.9 10.9607 45.9 11.8996C45.9 12.8385 45.1389 13.5996 44.2 13.5996C43.2611 13.5996 42.5 12.8385 42.5 11.8996C42.5 10.9607 43.2611 10.1996 44.2 10.1996Z" fill="black"/>
<path d="M8.50005 13.5995H10.2C11.1389 13.5995 11.9 12.8383 11.9 11.8995C11.9 10.9606 11.1389 10.1995 10.2 10.1995H8.50005C7.56116 10.1995 6.80005 10.9606 6.80005 11.8995C6.80005 12.8383 7.56116 13.5995 8.50005 13.5995Z" fill="black"/>
<path d="M17 13.5995H22.1C23.0389 13.5995 23.8 12.8383 23.8 11.8995C23.8 10.9606 23.0389 10.1995 22.1 10.1995H17C16.0612 10.1995 15.3 10.9606 15.3 11.8995C15.3 12.8383 16.0612 13.5995 17 13.5995Z" fill="black"/>
<path d="M8.50005 20.3998H27.2001C28.1389 20.3998 28.9 19.6386 28.9 18.6998C28.9 17.7609 28.1389 16.9998 27.2001 16.9998H8.50005C7.56116 16.9998 6.80005 17.7609 6.80005 18.6998C6.80005 19.6386 7.56116 20.3998 8.50005 20.3998Z" fill="black"/>
<path d="M75.298 24.4808C75.965 25.125 77.0253 25.1158 77.6811 24.4601C78.3368 23.8043 78.346 22.744 77.7018 22.077L73.8037 18.1789H84.9999C85.9388 18.1789 86.6999 18.94 86.6999 19.8789V47.0789C86.6999 48.0178 87.461 48.7789 88.3999 48.7789C89.3388 48.7789 90.0999 48.0178 90.0999 47.0789V19.8789C90.0999 17.0622 87.8165 14.7789 84.9999 14.7789H73.8037L77.7018 10.8808C78.346 10.2137 78.3368 9.15342 77.6811 8.49767C77.0253 7.84193 75.965 7.83271 75.298 8.47697L68.498 15.277C67.8343 15.9408 67.8343 17.0169 68.498 17.6808L75.298 24.4808Z" fill="black"/>
<path d="M95.2 48.7788C96.1389 48.7788 96.9 48.0177 96.9 47.0788V35.1788C96.9 34.2399 96.1389 33.4788 95.2 33.4788C94.2611 33.4788 93.5 34.2399 93.5 35.1788V47.0788C93.5 48.0177 94.2611 48.7788 95.2 48.7788Z" fill="black"/>
<path d="M95.2 30.0786C96.1389 30.0786 96.9 29.3174 96.9 28.3786V24.9786C96.9 24.0397 96.1389 23.2786 95.2 23.2786C94.2611 23.2786 93.5 24.0397 93.5 24.9786V28.3786C93.5 29.3174 94.2611 30.0786 95.2 30.0786Z" fill="black"/>
<path d="M166 61.1995H86.1C83.2833 61.1995 81 63.4828 81 66.2995V96.8994C81 99.7161 83.2833 101.999 86.1 101.999H166C168.817 101.999 171.1 99.7161 171.1 96.8994V66.2995C171.1 63.4828 168.817 61.1995 166 61.1995ZM84.4 76.3822C90.5533 75.5977 95.3982 70.7528 96.1827 64.5995H130.417C131.202 70.7528 136.047 75.5977 142.2 76.3822V86.8168C136.047 87.6012 131.202 92.4462 130.417 98.5994H96.1827C95.3982 92.4462 90.5533 87.6012 84.4 86.8168V76.3822ZM140.5 64.5995C141.439 64.5995 142.2 65.3606 142.2 66.2995V72.9465C137.929 72.2165 134.583 68.8707 133.853 64.5995H140.5ZM86.1 64.5995H92.747C92.017 68.8707 88.6713 72.2165 84.4 72.9465V66.2995C84.4 65.3606 85.1611 64.5995 86.1 64.5995ZM84.4 96.8994V90.2525C88.6713 90.9824 92.017 94.3282 92.747 98.5994H86.1C85.1611 98.5994 84.4 97.8383 84.4 96.8994ZM137.855 98.5994H133.853C134.583 94.3282 137.929 90.9824 142.2 90.2525V96.8994C142.2 97.8383 141.439 98.5994 140.5 98.5994H137.855ZM146.355 98.5994H145.287C145.489 98.055 145.594 97.4799 145.6 96.8994V66.2995C145.594 65.719 145.489 65.1439 145.287 64.5995H149C149.939 64.5995 150.7 65.3606 150.7 66.2995V96.8994C150.7 97.8383 149.939 98.5994 149 98.5994H146.355ZM154.855 98.5994H153.787C153.989 98.055 154.094 97.4799 154.1 96.8994V66.2995C154.094 65.719 153.989 65.1439 153.787 64.5995H157.5C158.439 64.5995 159.2 65.3606 159.2 66.2995V96.8994C159.2 97.8383 158.439 98.5994 157.5 98.5994H154.855ZM167.7 96.8994C167.7 97.8383 166.939 98.5994 166 98.5994H162.287C162.489 98.055 162.594 97.4799 162.6 96.8994V66.2995C162.594 65.719 162.489 65.1439 162.287 64.5995H166C166.939 64.5995 167.7 65.3606 167.7 66.2995V96.8994Z" fill="black"/>
<path d="M113.3 96.9001C121.75 96.9001 128.6 90.05 128.6 81.6001C128.6 73.1501 121.75 66.3 113.3 66.3C104.85 66.3 98 73.1501 98 81.6001C98.0094 90.0461 104.854 96.8907 113.3 96.9001ZM113.3 69.7001C119.872 69.7001 125.2 75.0279 125.2 81.6001C125.2 88.1722 119.872 93.5001 113.3 93.5001C106.728 93.5001 101.4 88.1722 101.4 81.6001C101.407 75.031 106.731 69.7075 113.3 69.7001Z" fill="black"/>
<path d="M94.6 83.3V79.9C94.6 78.9611 93.8388 78.2 92.9 78.2C91.9611 78.2 91.2 78.9611 91.2 79.9V83.3C91.2 84.2388 91.9611 85 92.9 85C93.8388 85 94.6 84.2388 94.6 83.3Z" fill="black"/>
<path d="M133.7 85C134.639 85 135.4 84.2388 135.4 83.3V79.9C135.4 78.9611 134.639 78.2 133.7 78.2C132.761 78.2 132 78.9611 132 79.9V83.3C132 84.2388 132.761 85 133.7 85Z" fill="black"/>
<path d="M113.3 83.2997C115.376 83.2997 116.7 84.3061 116.7 84.9997C116.7 85.6933 115.376 86.6997 113.3 86.6997C112.084 86.7925 110.892 86.33 110.056 85.4417C109.53 84.6643 108.472 84.461 107.695 84.9878C106.918 85.5145 106.714 86.5717 107.241 87.3491C108.299 88.7479 109.865 89.6748 111.6 89.9297V90.0997C111.6 91.0385 112.361 91.7997 113.3 91.7997C114.239 91.7997 115 91.0385 115 90.0997V89.9297C117.96 89.3738 120.1 87.4188 120.1 84.9997C120.1 82.1403 117.113 79.8997 113.3 79.8997C111.224 79.8997 109.9 78.8933 109.9 78.1997C109.9 77.5061 111.224 76.4997 113.3 76.4997C114.516 76.4068 115.708 76.8693 116.544 77.7577C116.884 78.2605 117.467 78.5435 118.073 78.4998C118.679 78.4562 119.216 78.0926 119.481 77.5461C119.746 76.9996 119.7 76.3531 119.359 75.8503C118.301 74.4514 116.735 73.5245 115 73.2697V73.0997C115 72.1608 114.239 71.3997 113.3 71.3997C112.361 71.3997 111.6 72.1608 111.6 73.0997V73.2697C108.64 73.8256 106.5 75.7806 106.5 78.1997C106.5 81.0591 109.487 83.2997 113.3 83.2997Z" fill="black"/>
</svg>
