<svg width="122" height="30" viewBox="0 0 122 30" fill="none" xmlns="http://www.w3.org/2000/svg">
<path d="M48.7502 17.8467V28.7499H52.9222V17.8467C52.9222 13.8223 56.0969 10.5491 60.0003 10.5491V6.24985C53.797 6.24763 48.7502 11.451 48.7502 17.8467Z" fill="#F2C94C"/>
<path d="M48.7502 17.8467V28.7499H52.9222V17.8467C52.9222 13.8223 56.0969 10.5491 60.0003 10.5491V6.24985C53.797 6.24763 48.7502 11.451 48.7502 17.8467Z" fill="#F2C94C"/>
<path d="M121.25 9.32412L118.178 6.24985L109.375 15.0495L100.573 6.24985L97.5003 9.32412L106.301 18.1238L97.5003 26.9257L100.573 29.9999L109.375 21.198L118.178 29.9999L121.25 26.9257L112.45 18.1238L121.25 9.32412Z" fill="#F2C94C"/>
<path d="M121.25 9.32412L118.178 6.24985L109.375 15.0495L100.573 6.24985L97.5003 9.32412L106.301 18.1238L97.5003 26.9257L100.573 29.9999L109.375 21.198L118.178 29.9999L121.25 26.9257L112.45 18.1238L121.25 9.32412Z" fill="#F2C94C"/>
<path d="M85.0003 10.6536C88.1772 10.6536 90.8725 12.8748 91.7645 15.9241H78.2361C79.1281 12.8748 81.8213 10.6536 85.0003 10.6536ZM96.0569 20.3211C96.1837 19.6087 96.2504 18.8759 96.2504 18.1249C96.2504 11.5771 91.2035 6.24985 85.0003 6.24985C78.7971 6.24985 73.7503 11.5771 73.7503 18.1249C73.7503 24.6727 78.7971 29.9999 85.0003 29.9999C88.6565 29.9999 91.9107 28.1486 93.9677 25.2898L90.606 22.683C90.5931 22.6988 90.5823 22.7147 90.5695 22.7329C89.2734 24.4753 87.2594 25.5984 85.0025 25.5984C81.8256 25.5984 79.1303 23.375 78.2383 20.3256H96.0483" fill="#F2C94C"/>
<path d="M85.0003 10.6536C88.1772 10.6536 90.8725 12.8748 91.7645 15.9241H78.2361C79.1281 12.8748 81.8213 10.6536 85.0003 10.6536ZM96.0569 20.3211C96.1837 19.6087 96.2504 18.8759 96.2504 18.1249C96.2504 11.5771 91.2035 6.24985 85.0003 6.24985C78.7971 6.24985 73.7503 11.5771 73.7503 18.1249C73.7503 24.6727 78.7971 29.9999 85.0003 29.9999C88.6565 29.9999 91.9107 28.1486 93.9677 25.2898L90.606 22.683C90.5931 22.6988 90.5823 22.7147 90.5695 22.7329C89.2734 24.4753 87.2594 25.5984 85.0025 25.5984C81.8256 25.5984 79.1303 23.375 78.2383 20.3256H96.0483" fill="#F2C94C"/>
<path d="M68.1028 0H63.7502V28.7501H68.1028V11.5009H72.5003V7.26982H68.1028V0Z" fill="#F2C94C"/>
<path d="M68.1028 0H63.7502V28.7501H68.1028V11.5009H72.5003V7.26982H68.1028V0Z" fill="#F2C94C"/>
<path d="M40.679 8.92479C38.6699 7.25493 36.1084 6.24985 33.3197 6.24985C28.9673 6.24985 25.0092 8.68884 23.0068 12.5799L18.1555 21.5962C16.8815 24.0647 14.3912 25.5961 11.6582 25.5961C7.61325 25.5961 4.32338 22.2428 4.32338 18.1226C4.32338 14.0024 7.61325 10.6514 11.6582 10.6514C14.9748 10.6514 17.7813 12.9066 18.6857 15.9877L21.187 11.3411C19.0777 8.27591 15.6074 6.24985 11.6582 6.24985C5.22993 6.24985 0 11.5771 0 18.1249C0 24.6727 5.22993 29.9999 11.6582 29.9999C16.0039 29.9999 19.9597 27.5655 21.9644 23.679L26.8179 14.6627C28.0897 12.1896 30.5822 10.6536 33.3197 10.6536C37.3646 10.6536 40.6545 14.0047 40.6545 18.1249C40.6545 22.2451 37.3646 25.5984 33.3197 25.5984C29.9919 25.5984 27.1787 23.3273 26.2833 20.2258L23.7753 24.886C25.8846 27.9648 29.3616 29.9999 33.3175 29.9999C36.1062 29.9999 38.6677 28.9948 40.6768 27.325V29.2853H45.0002V7.11881H40.6768V8.92479H40.679Z" fill="#F2C94C"/>
<path d="M40.679 8.92479C38.6699 7.25493 36.1084 6.24985 33.3197 6.24985C28.9673 6.24985 25.0092 8.68884 23.0068 12.5799L18.1555 21.5962C16.8815 24.0647 14.3912 25.5961 11.6582 25.5961C7.61325 25.5961 4.32338 22.2428 4.32338 18.1226C4.32338 14.0024 7.61325 10.6514 11.6582 10.6514C14.9748 10.6514 17.7813 12.9066 18.6857 15.9877L21.187 11.3411C19.0777 8.27591 15.6074 6.24985 11.6582 6.24985C5.22993 6.24985 0 11.5771 0 18.1249C0 24.6727 5.22993 29.9999 11.6582 29.9999C16.0039 29.9999 19.9597 27.5655 21.9644 23.679L26.8179 14.6627C28.0897 12.1896 30.5822 10.6536 33.3197 10.6536C37.3646 10.6536 40.6545 14.0047 40.6545 18.1249C40.6545 22.2451 37.3646 25.5984 33.3197 25.5984C29.9919 25.5984 27.1787 23.3273 26.2833 20.2258L23.7753 24.886C25.8846 27.9648 29.3616 29.9999 33.3175 29.9999C36.1062 29.9999 38.6677 28.9948 40.6768 27.325V29.2853H45.0002V7.11881H40.6768V8.92479H40.679Z" fill="#F2C94C"/>
</svg>
