<svg width="40" height="30" viewBox="0 0 40 30" fill="none" xmlns="http://www.w3.org/2000/svg">
<path fill-rule="evenodd" clip-rule="evenodd" d="M33.8337 12.9961L31.0137 15.6488C27.9367 12.8272 23.9127 11.2617 19.7368 11.2617C15.5609 11.2617 11.537 12.8272 8.46 15.6488L5.64158 12.9961C9.48525 9.46393 14.5162 7.50366 19.7376 7.50366C24.9591 7.50366 29.99 9.46393 33.8337 12.9961ZM0 7.69212L2.81842 10.3449C7.43368 6.11207 13.4697 3.76359 19.7337 3.76359C25.9976 3.76359 32.0337 6.11207 36.6489 10.3449L39.4737 7.69212C34.0924 2.74544 27.0481 0 19.7368 0C12.4256 0 5.38123 2.74544 0 7.69212ZM11.2768 18.3016L14.0968 20.9544C15.6353 19.5435 17.6473 18.7608 19.7353 18.7608C21.8232 18.7608 23.8352 19.5435 25.3737 20.9544L28.1921 18.3016C25.8865 16.1827 22.8686 15.0065 19.7364 15.0063C16.6041 15.006 13.586 16.1815 11.28 18.3L11.2768 18.3016ZM15.7468 26.2583C15.8107 27.2718 16.2585 28.2228 16.9992 28.918C17.7398 29.6131 18.7177 30 19.7337 30C20.7497 30 21.7275 29.6131 22.4682 28.918C23.2089 28.2228 23.6567 27.2718 23.7205 26.2583C23.7838 25.6976 23.7279 25.1298 23.5565 24.5922C23.3851 24.0545 23.102 23.5591 22.7258 23.1383C22.3496 22.7176 21.8888 22.3809 21.3734 22.1504C20.8581 21.9199 20.2999 21.8008 19.7353 21.8008C19.1707 21.8008 18.6124 21.9199 18.0971 22.1504C17.5817 22.3809 17.1209 22.7176 16.7447 23.1383C16.3685 23.5591 16.0855 24.0545 15.914 24.5922C15.7426 25.1298 15.6867 25.6976 15.75 26.2583H15.7468Z" fill="white"/>
</svg>
