<svg width="58" height="34" viewBox="0 0 58 34" fill="none" xmlns="http://www.w3.org/2000/svg">
<path fill-rule="evenodd" clip-rule="evenodd" d="M1.57588 12.8594L13.8159 1.35646C14.7431 0.485094 15.9677 0 17.2401 0H52.84C55.6014 0 57.84 2.23858 57.84 5V29C57.84 31.7614 55.6014 34 52.84 34H17.348C16.0115 34 14.7306 33.4649 13.7913 32.5143L1.44332 20.0172C-0.531995 18.0181 -0.472105 14.7841 1.57588 12.8594ZM29.3937 26L35.34 20.0538L41.2862 26L43.84 23.4462L37.8937 17.5L43.84 11.5538L41.2862 9L35.34 14.9462L29.3937 9L26.84 11.5538L32.7862 17.5L26.84 23.4462L29.3937 26Z" fill="#253238"/>
</svg>
