<svg width="128" height="100" viewBox="0 0 128 100" fill="none" xmlns="http://www.w3.org/2000/svg">
<path fill-rule="evenodd" clip-rule="evenodd" d="M29.764 100H97.246C113.661 100 127.015 86.6752 127.015 70.297V29.703C127.015 13.3248 113.661 0 97.246 0H29.7692C13.3545 0 0 13.3248 0 29.703V70.3022C0 86.6775 13.352 100 29.764 100ZM9.962 28.4554C10.6093 18.1155 19.2459 9.90099 29.7692 9.90099H97.246C107.769 9.90099 116.406 18.1155 117.053 28.4554H9.962ZM9.92306 39.8614V70.3022C9.92306 81.2181 18.8238 90.099 29.764 90.099H97.246C108.189 90.099 117.092 81.2158 117.092 70.297V39.8614H9.92306Z" fill="white"/>
</svg>
