<svg width="59" height="59" viewBox="0 0 59 59" fill="none" xmlns="http://www.w3.org/2000/svg">
<path d="M29.5032 31.0859C37.8048 31.0859 44.5586 24.2255 44.5586 15.793C44.5586 7.36043 37.8048 0.5 29.5032 0.5C21.2016 0.5 14.4478 7.36043 14.4478 15.793C14.4478 24.2255 21.2015 31.0859 29.5032 31.0859ZM29.5032 5.03125C35.345 5.03125 40.0978 9.85896 40.0978 15.793C40.0978 21.727 35.345 26.5547 29.5032 26.5547C23.6613 26.5547 18.9086 21.727 18.9086 15.793C18.9086 9.85896 23.6613 5.03125 29.5032 5.03125Z" fill="white"/>
<path d="M57.3586 43.7593C55.9044 40.9216 52.594 39.6881 49.5123 40.8758C47.3633 41.7044 44.7356 42.7171 41.8755 43.5182C42.1394 42.2282 42.0078 40.8621 41.4803 39.5633C40.7112 37.6697 39.1306 36.2609 37.1439 35.698C36.1284 35.4102 35.0259 35.3454 33.8668 35.5055C26.2244 36.5614 21.6747 33.9364 17.6601 31.6206C14.9616 30.064 12.413 28.5938 9.42938 28.5938C5.63763 28.5938 2.51792 29.83 2.51792 29.83C1.34226 30.2037 0.687627 31.4747 1.05554 32.6689C1.42345 33.863 2.6745 34.5284 3.85039 34.1544C3.85039 34.1544 6.52981 33.125 9.42938 33.125C11.2347 33.125 13.098 34.1999 15.4572 35.5608C18.9898 37.5985 23.628 40.2745 30.5225 40.2743C31.7622 40.2743 33.0758 40.1876 34.4679 39.9954C35.0133 39.9201 35.5244 39.9433 35.9455 40.0626C36.4156 40.1958 37.0421 40.5172 37.3567 41.2914C37.6007 41.8921 37.6128 42.4541 37.3928 42.9619C37.123 43.5848 36.5081 44.101 35.6618 44.4154C34.44 44.8691 32.8186 45.1108 30.8416 45.1328C28.7212 45.1487 26.5379 44.9002 24.7171 44.4143C23.5257 44.0962 22.306 44.8196 21.993 46.0298C21.6799 47.24 22.392 48.4788 23.5834 48.7968C25.7156 49.3659 28.2766 49.6642 30.73 49.6642C39.2055 49.6255 46.4703 46.8955 51.095 45.1123C51.8703 44.8136 52.9171 44.9058 53.3845 45.8183C53.8029 46.6348 53.5136 47.6874 52.7166 48.1199C47.1187 51.1577 40.6227 53.9688 31.0771 53.9688C22.5792 53.9688 14.7518 50.6377 9.68175 47.8434C5.77614 45.6908 2.92208 46.3707 2.60959 46.4554L2.61093 46.4605C1.65731 46.7177 0.953607 47.5982 0.953607 48.6478C0.953607 49.8991 1.95217 50.9134 3.18404 50.9134C3.36906 50.9134 3.54794 50.8881 3.71979 50.8449C3.91942 50.8102 5.36273 50.6183 7.55425 51.8261C13.0784 54.8707 21.6434 58.5 31.0771 58.5C43.0553 58.5 51.0004 54.1885 54.8185 52.1166C57.762 50.5192 58.9022 46.7714 57.3586 43.7593Z" fill="white"/>
<path d="M30.7299 49.6641C30.6931 49.6645 30.8124 49.6641 30.7299 49.6641V49.6641Z" fill="white"/>
</svg>
